<svg width="400" height="400" viewBox="0 0 400 400" fill="none" xmlns="http://www.w3.org/2000/svg">
<g clip-path="url(#clip0_1_2)">
<path d="M306.33 294.8C303.54 298.42 300.25 301.11 300.97 302.34C300.97 302.34 302.46 303.42 306.56 303.42C313.59 303.42 320.51 302.88 319.37 302.17C317.8 301.18 313.24 300.83 308.89 299.32C307.81 298.95 311.24 296.86 310.31 296.52C308.37 295.81 306.86 295.2 306.33 294.8Z" fill="#0C2F4F"/>
<path d="M378.8 302.12C378.8 302.12 379.72 303.42 383.27 303.42C389.35 303.42 395.69 302.59 394.71 301.98C393.35 301.13 382.69 298.9 382.69 298.9L380.3 295.93L376.25 298.17L378.8 302.12Z" fill="#0C2F4F"/>
<path d="M359.53 212.48C355.17 212.48 351.87 211.61 351.59 211.53C349.31 210.91 347.97 208.56 348.59 206.29C349.21 204.02 351.55 202.68 353.82 203.29C353.97 203.33 363.57 205.79 369.18 200.98C372.93 197.76 374.36 191.69 373.42 182.95L373.12 180.16L381.76 175.27C383.82 174.11 386.42 174.83 387.58 176.88C388.74 178.93 388.02 181.54 385.97 182.7L382.15 184.86C382.75 195.16 380.25 202.77 374.7 207.5C370.02 211.49 364.18 212.48 359.53 212.48Z" fill="#5E9DFB"/>
<path d="M374.32 188.78C374.16 194.99 372.51 199.49 369.38 202.17C363.23 207.45 352.7 204.76 352.52 204.71C350.02 204.04 347.46 205.51 346.78 208C346.1 210.5 347.57 213.08 350.07 213.76C350.37 213.84 354 215.65 358.78 215.48C376.95 214.83 387.92 199.16 388.12 190.02L374.32 188.78Z" fill="#E2F3F6"/>
<path d="M349.33 167.04C347.7 166.31 346.1 165.52 344.53 164.69C329.47 173.27 310.23 184.25 309.85 184.63C309.85 184.63 319.41 199.86 320.02 200.47C320.41 200.86 344.12 183.85 361.18 171.53C357.24 170.01 353.19 168.77 349.33 167.04Z" fill="#2265CA"/>
<path d="M349.58 166.61C353.52 168.35 357.67 169.61 361.67 171.19C371.06 164.4 378.32 159.12 378.32 159.12L362.27 154.61C362.27 154.61 354.55 158.99 345.03 164.41C346.52 165.19 348.03 165.92 349.58 166.61Z" fill="#2172EB"/>
<path d="M321.91 146.62L331.36 172.2L349.83 178.98L326.43 136.23L321.91 146.62Z" fill="#0445A7"/>
<path d="M350.83 185.27H337.15L349.33 206.55L367.9 214.38L350.83 185.27Z" fill="#0445A7"/>
<path d="M367.9 214.38L357 195.79L310.39 223.12L301.22 207.48L306.98 114.52L327.93 102.24L365.63 166.56L378.32 159.12L388.87 177.12L376.18 184.56L387.08 203.15L367.9 214.38ZM325.61 142.24L324.43 142.93L321.23 192.58L346.45 177.79L325.61 142.24Z" fill="#1857B7"/>
<path d="M285.73 203.23L301.23 207.48L310.39 223.12L294.02 218.97L285.73 203.23Z" fill="#2265CA"/>
<path d="M285.73 203.23L301.23 207.48L306.98 114.52L292.76 111.11L285.73 203.23Z" fill="#2172EB"/>
<path d="M292.76 111.11L306.98 114.52L327.93 102.24L313.53 98.05L292.76 111.11Z" fill="#579AFF"/>
<path d="M323.94 240.27C323.94 240.27 326.22 264.84 326.22 273.44C326.22 273.44 308.33 287.38 303.95 294.68C305.83 296.11 309.55 298.01 311.99 297.94C323.93 286.54 337.03 278.41 337.03 278.41C337.03 278.41 342.68 262.02 344.44 248.14L323.94 240.27Z" fill="#0C2F4F"/>
<path d="M336.69 241.43C340.72 241.46 344.83 240.77 348.3 238.88C347.14 233.97 349.61 219.5 352.72 211.76C352.72 211.76 355.17 206.37 353.45 204.72C347.09 198.6 341.67 199.1 339.99 199.03C334.15 203.96 323.28 218.51 323.72 237.74C326.72 240.91 332.82 241.4 336.69 241.43Z" fill="#E2F3F6"/>
<path d="M376.15 298.85C378.48 298.2 380.71 297.13 382.14 295.22C375.23 284.02 349.9 242.87 348.53 239.65C348.5 239.57 348.46 239.47 348.43 239.38C344.71 241.39 340.27 242.09 335.97 241.93C332.22 241.79 326.8 241.26 323.74 238.49C323.75 238.69 323.75 238.88 323.76 239.09C324.29 249.83 359.92 285.64 373.94 299.34C374.71 299.2 375.46 299.03 376.15 298.85Z" fill="#1A3B69"/>
<path d="M302.6 230.29C301.61 230.29 300.66 230.15 299.75 229.84C297.87 229.21 295.37 227.62 294.2 223.65C293.53 221.39 294.82 219.01 297.08 218.34C299.34 217.67 301.72 218.96 302.39 221.22C302.47 221.48 302.54 221.65 302.59 221.75C303.05 221.77 304.74 221.62 308.85 219.2C312.53 217.04 316.88 213.82 321.09 210.71C328.2 205.45 334.92 200.48 340.46 198.73C342.71 198.02 345.11 199.27 345.82 201.51C346.53 203.76 345.29 206.16 343.04 206.87C338.85 208.2 332.41 212.97 326.17 217.58C317.04 224.34 309 230.29 302.6 230.29Z" fill="#1CA3DD"/>
<path d="M310.59 227.1C310.07 224.58 309.52 221.81 307.93 219.74C304.49 221.65 303.02 221.78 302.6 221.76C302.55 221.66 302.47 221.49 302.4 221.23C301.73 218.97 299.35 217.68 297.09 218.35C294.83 219.02 293.54 221.4 294.21 223.66C295.39 227.63 297.88 229.22 299.76 229.85C300.67 230.16 301.62 230.3 302.61 230.3C305.09 230.3 307.82 229.4 310.77 227.91C310.7 227.63 310.64 227.37 310.59 227.1Z" fill="#5E9DFB"/>
<path d="M345.82 201.52C345.11 199.27 342.71 198.02 340.46 198.74C334.91 200.49 328.2 205.46 321.09 210.72C316.88 213.83 312.53 217.05 308.85 219.21C308.68 219.31 308.52 219.4 308.36 219.49C309.96 221.6 312.72 232.01 312.77 232.24C317.3 229.87 339.02 213.33 343.73 208.34C345.36 206.63 346.53 203.77 345.82 201.52Z" fill="#E2F3F6"/>
<path d="M296.56 226.84C296.31 226.84 296.05 226.76 295.83 226.61C292.48 224.21 290.73 219.6 290.66 219.41C290.42 218.76 290.75 218.04 291.4 217.79C292.05 217.55 292.77 217.88 293.02 218.53C293.04 218.57 294.58 222.62 297.3 224.57C297.86 224.97 298 225.76 297.59 226.32C297.34 226.66 296.95 226.84 296.56 226.84Z" fill="#5E9DFB"/>
<path d="M296.56 223.78C296.17 223.78 295.78 223.59 295.53 223.25C293.93 220.98 292.64 215.58 292.5 214.98C292.34 214.3 292.76 213.63 293.44 213.47C294.12 213.31 294.79 213.73 294.95 214.41C295.3 215.93 296.47 220.22 297.58 221.8C297.98 222.37 297.85 223.15 297.28 223.55C297.06 223.71 296.81 223.78 296.56 223.78Z" fill="#5E9DFB"/>
<path d="M298.29 223.07C297.79 223.07 297.32 222.78 297.13 222.29C295.98 219.47 295.53 213.55 295.51 213.3C295.46 212.61 295.98 212.01 296.67 211.96C297.37 211.9 297.96 212.43 298.02 213.12C298.14 214.72 298.63 219.31 299.46 221.34C299.72 221.98 299.41 222.72 298.77 222.98C298.61 223.04 298.45 223.07 298.29 223.07Z" fill="#5E9DFB"/>
<path d="M300.18 222.47C299.62 222.47 299.11 222.1 298.96 221.53C298.17 218.46 298.89 215.33 298.92 215.2C299.08 214.52 299.76 214.11 300.43 214.26C301.1 214.42 301.52 215.09 301.37 215.77C301.36 215.83 300.77 218.46 301.4 220.9C301.57 221.57 301.17 222.26 300.5 222.43C300.39 222.46 300.28 222.47 300.18 222.47Z" fill="#5E9DFB"/>
<path d="M350.68 208.35C350.1 208.35 349.52 208.23 348.97 207.96C346.96 207.01 346.1 204.61 347.05 202.61C348.04 200.51 349.83 198.36 350.03 198.12C351.46 196.42 354 196.21 355.69 197.64C357.39 199.07 357.6 201.6 356.17 203.3C355.67 203.9 354.72 205.17 354.31 206.04C353.63 207.5 352.18 208.35 350.68 208.35Z" fill="#5E9DFB"/>
<path d="M351.26 206.28C351.74 206.81 352.23 207.3 352.75 207.77C353.41 207.38 353.96 206.79 354.31 206.05C354.72 205.18 355.67 203.91 356.17 203.31C357.6 201.61 357.38 199.08 355.69 197.65C353.99 196.22 351.46 196.43 350.03 198.13C349.95 198.23 349.62 198.62 349.2 199.18C349.23 201.71 349.5 204.34 351.26 206.28Z" fill="#4E89E2"/>
<path d="M364.46 201.84C362.86 205.72 358.42 207.57 354.54 205.97C350.66 204.37 348.81 199.93 350.41 196.05L352.42 191.17C354.02 187.29 358.46 185.44 362.34 187.04C366.22 188.64 368.07 193.08 366.47 196.96L364.46 201.84Z" fill="#5E9DFB"/>
<path d="M351.26 195.48C350.64 198.09 346.89 197.25 345.48 195.89C343.54 194.01 342.38 188.7 346.68 188.98C343.58 184.3 354.09 179.23 355.19 184.64C356.01 183.25 356.85 181.99 358.68 181.88C360 181.8 362.3 182.81 362.11 184.43C364.06 182.89 366.91 183.01 368.84 184.57C369.46 185.07 370.57 186.18 370.01 186.99C369.7 187.44 368.12 187.57 367.59 187.74C368.5 187.33 372.25 188.16 371.51 189.72C371.17 190.45 369.33 189.79 368.8 189.64C368.8 189.64 368.79 189.81 368.8 189.8C370.8 190.9 371.62 192.01 371.38 194.5C371.27 195.64 370.73 197.81 369.37 197.97C368.67 198.05 367.87 197.61 367.88 196.88C369.55 198.55 367.18 203.01 365.07 200.81C364.24 199.95 364.64 198.5 365.43 197.75C364.18 197.03 361.48 193.24 363.4 192.22C362.5 192.24 358.33 190.83 359.66 189.63C360.01 191.02 358.29 192.82 356.92 192.11C357.77 193.96 355.27 195.35 353.73 195.41C354.67 196.6 351.77 198 350.88 196.28L351.26 195.48Z" fill="#1A3B69"/>
<path d="M208.47 180.31C208.47 180.31 206.03 170.97 218.13 168.75L217.21 179.97L208.47 180.31Z" fill="#4E89E2"/>
<path d="M159.99 203.89C157.34 203.89 154.88 203.35 152.61 202.28C141.62 197.09 140.4 181.48 140.35 180.82C140.18 178.47 141.96 176.42 144.31 176.26C146.66 176.1 148.7 177.86 148.87 180.21C149.11 183.35 150.9 192.04 156.28 194.57C160.72 196.65 167.6 194.53 176.19 188.43C178.11 187.06 180.78 187.52 182.14 189.44C183.51 191.36 183.05 194.03 181.13 195.4C173.16 201.05 166.08 203.89 159.99 203.89Z" fill="#CDE5E8"/>
<path d="M182.71 211.9C183.9 208.78 185 205.62 186.28 202.54C185.42 202.47 184.54 202.36 183.66 202.19C179.52 201.4 176.01 199.71 173.14 197.13C170.27 194.55 168.05 191.28 166.48 187.33C164.91 183.37 164 178.88 163.75 173.84C163.49 168.8 163.9 163.48 164.97 157.88C166.06 152.17 167.65 147.05 169.73 142.51C171.81 137.98 174.31 134.16 177.23 131.06C180.14 127.96 183.41 125.74 187.03 124.4C190.65 123.06 194.53 122.79 198.68 123.58C201.96 124.21 204.85 125.44 207.36 127.27C208.57 124.85 209.87 122.48 211.11 120.12C212.57 117.32 213.93 114.47 215.23 111.6C215.79 110.37 216.27 109.1 216.77 107.85C212.57 105.46 207.87 103.76 202.65 102.76C195.26 101.35 188.3 101.62 181.78 103.56C175.26 105.51 169.38 108.76 164.16 113.34C158.93 117.91 154.5 123.65 150.86 130.56C147.22 137.47 144.59 145.18 142.96 153.68C141.33 162.19 140.94 170.33 141.78 178.09C142.62 185.85 144.62 192.82 147.8 199C150.97 205.18 155.23 210.37 160.58 214.58C165.56 218.5 171.42 221.21 178.18 222.71C179.78 219.14 181.32 215.56 182.71 211.9Z" fill="#2172EB"/>
<path d="M240.56 147.69C239.72 139.93 237.72 132.96 234.54 126.78C231.37 120.6 227.11 115.41 221.76 111.2C220.32 110.07 218.8 109.04 217.22 108.11C216.72 109.36 216.24 110.63 215.68 111.85C214.35 114.72 213.03 117.57 211.56 120.37C210.31 122.75 209 125.14 207.78 127.57C208.21 127.9 208.64 128.24 209.04 128.61C211.91 131.19 214.16 134.46 215.78 138.43C217.4 142.4 218.35 146.87 218.61 151.85C218.88 156.83 218.46 162.18 217.37 167.89C216.3 173.49 214.72 178.59 212.62 183.17C210.52 187.76 207.99 191.6 205.02 194.69C202.05 197.78 198.76 200 195.14 201.33C192.47 202.32 189.69 202.73 186.8 202.57C185.38 205.94 184.18 209.41 182.89 212.83C181.61 216.21 180.17 219.52 178.68 222.81C179.01 222.88 179.35 222.95 179.68 223.01C187.07 224.42 194.02 224.15 200.55 222.21C207.07 220.27 212.95 217.01 218.17 212.43C223.4 207.86 227.83 202.12 231.47 195.21C235.11 188.31 237.74 180.6 239.37 172.09C241 163.59 241.39 155.46 240.56 147.69Z" fill="#0445A7"/>
<path d="M192.74 227.46C185.35 226.05 178.98 223.23 173.64 219.02C168.29 214.81 164.03 209.61 160.86 203.44C157.69 197.26 155.68 190.29 154.84 182.53C154 174.77 154.4 166.63 156.02 158.12C157.64 149.61 160.28 141.9 163.92 135C167.56 128.1 171.99 122.35 177.22 117.78C182.45 113.21 188.32 109.95 194.84 108C201.36 106.06 208.32 105.79 215.71 107.2C223.1 108.61 229.47 111.42 234.81 115.64C240.16 119.85 244.42 125.05 247.59 131.22C250.76 137.4 252.77 144.37 253.61 152.13C254.45 159.89 254.05 168.03 252.43 176.54C250.8 185.05 248.17 192.76 244.53 199.66C240.89 206.57 236.46 212.31 231.23 216.88C226 221.45 220.13 224.71 213.61 226.66C207.08 228.6 200.13 228.87 192.74 227.46ZM196.71 206.63C200.74 207.4 204.57 207.12 208.19 205.78C211.81 204.44 215.11 202.23 218.08 199.14C221.05 196.05 223.58 192.21 225.68 187.62C227.78 183.03 229.36 177.94 230.43 172.34C231.52 166.63 231.93 161.28 231.67 156.3C231.4 151.32 230.46 146.84 228.84 142.88C227.22 138.91 224.97 135.64 222.1 133.06C219.23 130.48 215.77 128.81 211.74 128.04C207.6 127.25 203.71 127.52 200.09 128.86C196.47 130.2 193.2 132.42 190.29 135.52C187.38 138.62 184.88 142.44 182.79 146.97C180.7 151.51 179.12 156.63 178.03 162.34C176.96 167.94 176.55 173.26 176.81 178.3C177.07 183.34 177.98 187.84 179.54 191.79C181.1 195.74 183.32 199.01 186.2 201.59C189.06 204.15 192.57 205.84 196.71 206.63Z" fill="#1857B7"/>
<path d="M268.08 164.74L268.41 180.44C268.41 180.44 263.93 184.46 259.91 180.44L261.39 162.76L268.08 164.74Z" fill="#1A3B69"/>
<path d="M249.58 289.99C249.32 289.79 247.57 288.97 247.33 288.77C246.39 290.18 245.73 290.95 244.6 292.12C247.37 294.53 246.66 297.46 246.66 297.46C246.66 297.46 244.7 299.14 243.94 299.52C241.5 300.72 236.99 302.39 236.99 302.39L248.34 303.28L256.76 294.66C253.77 293.01 251.49 291.49 249.58 289.99Z" fill="#0C2F4F"/>
<path d="M205.13 290.6C203.32 290.28 201.04 291.67 199.57 290.6C199.23 293.76 199.29 295.48 199.29 295.48L182.5 302.4H203.94C204.13 300.12 203.72 297.92 204.03 295.81C204.2 294.72 204.93 291.65 205.13 290.6Z" fill="#0C2F4F"/>
<path d="M224.67 214.41L205.7 250.45C205.7 250.45 213.39 256.95 220.95 259.12L235.17 216.65L224.67 214.41Z" fill="#CDE5E8"/>
<path d="M245.44 293.02C246.58 291.86 247.52 290.47 248.45 289.06C243.54 284.86 241.14 280.52 234.48 273.07C231.72 269.98 239.03 252.31 240.8 249.35C243.99 244.02 244.48 240.16 246.97 231.04L228.45 237.96C224.04 253.76 218.9 269.55 224.05 277.09C229.49 285.06 239.15 291.47 243.81 294.68C244 294.79 245.29 292.9 245.44 293.02Z" fill="#0C2F4F"/>
<path d="M214.25 178.46C214 178.46 213.74 178.38 213.52 178.22C212.96 177.82 212.83 177.03 213.23 176.47C214.72 174.39 215.05 172.68 215.05 172.66C215.18 171.98 215.82 171.53 216.51 171.65C217.19 171.77 217.64 172.42 217.53 173.1C217.51 173.19 217.12 175.36 215.27 177.94C215.03 178.28 214.64 178.46 214.25 178.46Z" fill="#5E9DFB"/>
<path d="M245.66 234.85C251.17 219.71 255.88 195.95 257.65 186.47C256.66 186.06 255.7 185.75 254.93 185.54C253.29 185.09 251.33 184.56 249.66 185.08C248.81 185.35 248.05 185.78 247.31 186.25C246.62 188.31 246.34 190.04 246.34 190.04C246.34 190.04 234.5 212.68 226.78 228.12C233.32 229.6 239.73 231.75 245.66 234.85Z" fill="#F5ED9D"/>
<path d="M226.55 228.59C226.54 228.59 226.54 228.59 226.55 228.59C225.86 229.95 225.21 231.26 224.61 232.49H224.6C223.08 235.18 221.45 237.67 219.86 240.06C204.62 263.04 198.86 281.35 197.85 290.02C199.3 291.16 204.81 291.8 206.64 292.12C209.45 277.75 216.77 268.58 229.88 257.74C234.27 254.11 237.55 249.51 240.43 245.68C242.15 243.4 243.85 239.74 245.49 235.32C239.55 232.21 233.11 230.06 226.55 228.59Z" fill="#1A3B69"/>
<path d="M211.76 234.91C209.99 234.91 208.34 233.8 207.72 232.04C206.95 229.81 208.13 227.38 210.36 226.61C215.54 224.81 223.49 217.73 228.85 210.13C239.72 194.71 247.36 186.16 247.68 185.81C249.25 184.05 251.96 183.91 253.71 185.48C255.46 187.05 255.61 189.75 254.04 191.51C253.96 191.59 246.39 200.08 235.83 215.05C230.54 222.55 221.19 231.89 213.16 234.68C212.69 234.84 212.22 234.91 211.76 234.91Z" fill="#5E9DFB"/>
<path d="M254.65 187.89C254.55 187.89 254.45 187.89 254.35 187.88C252.14 187.72 250.47 185.79 250.63 183.58C250.8 181.27 251.7 178.61 251.8 178.32C252.52 176.22 254.81 175.11 256.91 175.83C259.01 176.55 260.12 178.84 259.4 180.94C259.15 181.68 258.72 183.21 258.65 184.17C258.5 186.28 256.73 187.89 254.65 187.89Z" fill="#5E9DFB"/>
<path d="M255.82 183.65C256.53 184.47 257.31 185.19 258.13 185.86C258.42 185.35 258.6 184.78 258.65 184.16C258.72 183.2 259.15 181.67 259.4 180.93C260.12 178.83 259.01 176.55 256.91 175.82C255.17 175.22 253.3 175.89 252.3 177.33C252.67 179.6 254.53 182.16 255.82 183.65Z" fill="#4E89E2"/>
<path d="M266.18 174.95C266.09 179.15 262.61 182.47 258.41 182.38C254.21 182.29 250.89 178.81 250.98 174.61L251.1 169.34C251.19 165.14 254.67 161.82 258.87 161.91C263.07 162 266.39 165.48 266.3 169.68L266.18 174.95Z" fill="#5E9DFB"/>
<path d="M205.73 233.73C203.98 233.73 201.97 233.26 199.73 232.32C199.09 232.05 198.79 231.32 199.06 230.68C199.33 230.04 200.06 229.74 200.7 230.01C204.01 231.4 206.64 231.6 208.31 230.59C208.91 230.23 209.68 230.42 210.04 231.01C210.4 231.6 210.21 232.37 209.61 232.73C208.5 233.4 207.2 233.73 205.73 233.73Z" fill="#5E9DFB"/>
<path d="M207.23 235.56C205.23 235.56 203.63 235.17 201.8 234.73L201.23 234.59C200.56 234.43 200.14 233.75 200.3 233.08C200.46 232.41 201.14 231.99 201.81 232.15L202.38 232.29C205.43 233.03 207.44 233.51 211.89 232.36C212.57 232.19 213.25 232.59 213.42 233.26C213.59 233.93 213.19 234.62 212.52 234.79C210.39 235.35 208.7 235.56 207.23 235.56Z" fill="#5E9DFB"/>
<path d="M205.64 231.26C201.7 231.26 199 228.83 198.86 228.71C198.35 228.24 198.31 227.45 198.78 226.94C199.25 226.43 200.04 226.4 200.55 226.86C200.68 226.97 203.56 229.52 207.45 228.52C208.13 228.35 208.81 228.75 208.98 229.42C209.15 230.09 208.75 230.78 208.08 230.95C207.23 231.17 206.41 231.26 205.64 231.26Z" fill="#5E9DFB"/>
<path d="M208.27 229.91C208.22 229.91 208.17 229.91 208.12 229.9C203.84 229.4 202.1 226.32 202.03 226.19C201.7 225.58 201.92 224.82 202.53 224.48C203.13 224.15 203.89 224.37 204.23 224.97C204.29 225.07 205.48 227.06 208.41 227.4C209.1 227.48 209.59 228.1 209.51 228.79C209.44 229.44 208.9 229.91 208.27 229.91Z" fill="#5E9DFB"/>
<path d="M223.28 180.27C223.21 180.27 223.14 180.26 223.07 180.25C220.99 179.91 215.3 179.01 213.98 179.01C213.29 179.01 212.72 178.45 212.72 177.75C212.72 177.06 213.28 176.49 213.98 176.49C215.75 176.49 222.69 177.63 223.48 177.76C224.16 177.87 224.63 178.52 224.51 179.2C224.42 179.83 223.89 180.27 223.28 180.27Z" fill="#5E9DFB"/>
<path d="M222.48 182.91C222.37 182.91 222.26 182.9 222.15 182.87C222.09 182.85 216.12 181.23 213.34 181.07C212.65 181.03 212.12 180.44 212.16 179.74C212.2 179.05 212.8 178.5 213.49 178.56C216.53 178.73 222.57 180.38 222.82 180.45C223.49 180.63 223.88 181.32 223.7 181.99C223.54 182.54 223.03 182.91 222.48 182.91Z" fill="#5E9DFB"/>
<path d="M221.87 185.67C221.74 185.67 221.61 185.65 221.48 185.61C215.82 183.78 214.43 183.67 213.68 183.61C213.36 183.58 213.05 183.56 212.63 183.45C211.96 183.27 211.56 182.59 211.74 181.91C211.92 181.24 212.61 180.84 213.28 181.02C213.48 181.07 213.62 181.09 213.88 181.11C214.79 181.18 216.31 181.31 222.25 183.22C222.91 183.43 223.27 184.14 223.06 184.8C222.9 185.33 222.41 185.67 221.87 185.67Z" fill="#5E9DFB"/>
<path d="M219.39 187.68C219.36 187.68 219.33 187.68 219.3 187.68C213.64 187.27 213.4 184.2 213.39 183.85L215.9 183.79C215.9 183.79 215.9 183.76 215.89 183.71C215.89 183.72 216.15 184.94 219.47 185.18C220.16 185.23 220.68 185.83 220.63 186.52C220.59 187.18 220.04 187.68 219.39 187.68Z" fill="#5E9DFB"/>
<path d="M214.65 186.17C214.65 186.17 213.56 185.67 211.86 185.67C210.43 185.67 208.49 183.25 208.49 180.73C208.49 180.73 207.79 173.31 215.62 176.67L214.65 186.17Z" fill="#5E9DFB"/>
<path d="M239.3 208.22L228.32 262.26C228.32 262.26 245.32 266.36 255.75 260.35L258.39 185.26C258.39 185.27 246.72 181.18 239.3 208.22Z" fill="#CDE5E8"/>
<path d="M241.84 237.96L252.35 237.4C252.35 237.4 252.6 253.48 246.32 252.85C246.33 252.84 237.74 254.72 241.84 237.96Z" fill="#E2F3F6"/>
<path d="M255.05 183.98C253.9 182.94 252.41 182.37 250.86 182.37C249.08 182.37 247.37 183.13 246.18 184.45C245.86 184.81 238.18 193.4 227.21 208.96C226.49 209.98 225.7 211.02 224.86 212.05L223.74 213.42L224.96 214.7C226.25 216.07 227.61 217.4 228.93 218.69C229.64 219.39 230.36 220.09 231.06 220.8L232.61 222.36L234.02 220.68C235.28 219.18 236.44 217.67 237.47 216.21C247.96 201.33 255.46 192.93 255.53 192.85C257.84 190.27 257.62 186.29 255.05 183.98Z" fill="#E2F3F6"/>
<path d="M226.2 208.584L221.956 213.308L233.01 223.239L237.254 218.515L226.2 208.584Z" fill="#F8FCFF"/>
<path d="M243.36 177.96L253.02 181.74C253.02 181.74 257.13 161.76 254.13 158.76C254.13 158.77 243.36 157.75 243.36 177.96Z" fill="#1A3B69"/>
<path d="M254.68 162.25C255.02 162.76 262.52 167.76 268.4 166.38C268.4 166.38 267.39 157.55 253.66 158.82L254.68 162.25Z" fill="#1A3B69"/>
<path d="M260.47 171.67C260.47 173.99 258.59 175.87 256.27 175.87C253.95 175.87 252.07 173.99 252.07 171.67C252.07 169.35 253.95 167.47 256.27 167.47C258.59 167.47 260.47 169.35 260.47 171.67Z" stroke="#0066FF" stroke-width="0.8679" stroke-miterlimit="10"/>
<path d="M269.95 172.49C269.95 174.51 268.32 176.14 266.3 176.14C264.28 176.14 262.65 174.5 262.65 172.49C262.65 170.47 264.29 168.84 266.3 168.84C268.31 168.84 269.95 170.48 269.95 172.49Z" stroke="#0066FF" stroke-width="0.755" stroke-miterlimit="10"/>
<path d="M260.47 171.67C260.47 171.67 261.86 171.12 262.69 171.96" stroke="#0066FF" stroke-width="0.8679" stroke-miterlimit="10"/>
<path d="M138.28 179.03C138.18 179.03 138.08 179.03 137.98 179.02C135.77 178.86 134.1 176.93 134.26 174.72C134.43 172.41 135.33 169.75 135.43 169.46C136.15 167.36 138.44 166.25 140.54 166.97C142.64 167.69 143.75 169.98 143.03 172.08C142.78 172.82 142.35 174.35 142.28 175.31C142.13 177.41 140.37 179.02 138.28 179.03Z" fill="#4E89E2"/>
<path d="M135.9 290.58C142.56 293.65 148.02 293.59 148.46 293.65C152.8 285.93 165.88 265.01 153.98 247.84L137.15 238.8C137.15 238.8 153.98 256.35 135.9 290.58Z" fill="#0C2F4F"/>
<path d="M144.61 297.42C144.61 297.42 146.16 294.27 147.38 292.15C146.47 292.04 142.39 291.87 140.72 291.23C139.15 294.44 135.73 299.14 133.31 302.36H155.92L144.61 297.42Z" fill="#0C2F4F"/>
<path d="M172.57 248.85C169.76 243.39 149.34 226.96 147.48 217.52C147.32 216.69 147.18 215.83 147.06 214.95C143.78 216.68 139.52 217.16 136.15 217.33C132.32 217.52 130.04 217.76 126.33 215.96C126.64 221.82 125.69 227.47 129.11 233.41C135.89 245.18 158.43 255.27 160.95 259.16C165.91 266.84 167.62 283.5 169.31 293.67C171.96 293.67 178.26 293.55 180.84 292.64C179.97 287.4 181.38 265.95 172.57 248.85Z" fill="#1A3B69"/>
<path d="M179.61 296.5C179.61 296.5 178.88 293.53 178.66 292.14C176.07 293.05 174.57 292.13 171.91 292.14C172.31 294.66 172.01 299.37 172.25 302.14H193.69L179.61 296.5Z" fill="#0C2F4F"/>
<path d="M136.31 220.4C139.57 220.25 146.43 219.34 149.18 216.59C148.62 212.11 146.61 204.9 147.32 199.1C149.71 179.43 140.11 173.53 140.11 173.53C140.11 173.53 135.69 170.44 132.1 174.13C126.7 179.7 121.42 195.43 121.95 218.7C125.68 220.63 132.39 220.58 136.31 220.4Z" fill="#CDE5E8"/>
<path d="M185.57 226.61C185.25 226.61 184.93 226.58 184.6 226.5C169.12 222.91 156.01 213.63 146.69 199.68C139.7 189.22 137.29 179.84 137.19 179.45C136.61 177.16 138 174.84 140.29 174.27C142.58 173.69 144.89 175.08 145.47 177.36C145.51 177.53 147.74 185.97 153.95 195.18C162.15 207.33 173.11 215.07 186.53 218.19C188.83 218.72 190.26 221.02 189.73 223.31C189.27 225.28 187.51 226.61 185.57 226.61Z" fill="#5E9DFB"/>
<path d="M176.16 213.78C167.63 209.74 160.37 203.34 154.58 194.75C148.44 185.65 146.22 177.25 146.2 177.16C145.63 174.93 143.63 173.37 141.33 173.37C140.92 173.37 140.5 173.42 140.1 173.52C138.8 173.85 137.7 174.66 137.01 175.81C136.32 176.96 136.12 178.31 136.45 179.61L136.47 179.7C137.13 182.57 139.77 192.69 146.05 202.09C153.57 213.35 163.77 221.77 175.55 226.46C175.64 226.49 175.73 226.51 175.83 226.51C175.98 226.51 176.13 226.47 176.25 226.38C176.46 226.24 176.58 226.01 176.58 225.76V214.45C176.59 214.17 176.43 213.91 176.16 213.78Z" fill="#E2F3F6"/>
<path d="M188.74 226.92C187.37 226.92 185.92 226.77 184.38 226.46C183.7 226.32 183.26 225.66 183.39 224.98C183.53 224.3 184.19 223.86 184.87 223.99C188.61 224.74 191.73 224.47 194.15 223.18C194.76 222.85 195.52 223.09 195.85 223.7C196.18 224.31 195.94 225.07 195.33 225.4C193.44 226.41 191.23 226.92 188.74 226.92Z" fill="#5E9DFB"/>
<path d="M188.92 224.11C188.32 224.11 187.71 224.07 187.08 223.98C186.39 223.88 185.92 223.24 186.02 222.55C186.12 221.86 186.76 221.39 187.44 221.49C191.46 222.08 195.18 219.99 195.21 219.97C195.81 219.63 196.58 219.83 196.92 220.44C197.26 221.04 197.06 221.81 196.46 222.15C196.31 222.24 193.02 224.11 188.92 224.11Z" fill="#5E9DFB"/>
<path d="M187.81 221.63C187.61 221.63 187.42 221.62 187.21 221.61C186.52 221.57 185.99 220.97 186.04 220.28C186.08 219.59 186.68 219.06 187.37 219.11C190.34 219.29 191.9 217.49 191.92 217.47C192.36 216.93 193.15 216.85 193.69 217.29C194.23 217.73 194.31 218.52 193.87 219.06C193.77 219.16 191.72 221.63 187.81 221.63Z" fill="#5E9DFB"/>
<path d="M183.46 219.52C182.77 219.52 182.2 218.96 182.2 218.26C182.2 217.57 182.76 217.01 183.45 217C183.56 217 186.04 216.94 187.46 214.9C187.86 214.33 188.64 214.19 189.21 214.58C189.78 214.97 189.92 215.76 189.53 216.33C187.35 219.48 183.62 219.52 183.46 219.52Z" fill="#5E9DFB"/>
<path d="M179.36 191.17C178.97 191.17 178.58 190.99 178.34 190.65C176.49 188.07 176.1 185.9 176.08 185.81C175.96 185.13 176.42 184.48 177.11 184.36C177.79 184.24 178.44 184.7 178.56 185.38C178.56 185.39 178.89 187.1 180.38 189.18C180.78 189.74 180.66 190.53 180.09 190.93C179.87 191.09 179.61 191.17 179.36 191.17Z" fill="#5E9DFB"/>
<path d="M179.62 191.72C179.54 191.72 179.46 191.71 179.38 191.7C176.63 191.17 171.18 191.17 171.12 191.17C170.43 191.17 169.86 190.61 169.86 189.91C169.86 189.22 170.42 188.65 171.12 188.65C171.35 188.65 176.87 188.66 179.85 189.23C180.53 189.36 180.98 190.02 180.85 190.7C180.74 191.3 180.21 191.72 179.62 191.72Z" fill="#5E9DFB"/>
<path d="M170.44 194.34C169.82 194.34 169.27 193.87 169.19 193.24C169.1 192.55 169.59 191.92 170.28 191.84C171.08 191.74 178.13 190.88 180.42 191.29C181.1 191.41 181.56 192.06 181.44 192.75C181.32 193.43 180.67 193.89 179.98 193.77C178.54 193.52 173.46 193.99 170.59 194.34C170.54 194.33 170.49 194.34 170.44 194.34Z" fill="#5E9DFB"/>
<path d="M172.07 197.18C171.48 197.18 170.95 196.76 170.84 196.16C170.71 195.48 171.15 194.82 171.84 194.69C174.88 194.1 175.69 193.84 177.17 193.37C177.86 193.15 178.72 192.87 180 192.5C180.66 192.31 181.36 192.69 181.56 193.36C181.75 194.03 181.37 194.72 180.7 194.92C179.46 195.28 178.65 195.54 177.94 195.77C176.43 196.26 175.51 196.55 172.32 197.17C172.23 197.17 172.15 197.18 172.07 197.18Z" fill="#5E9DFB"/>
<path d="M174.78 199.17C174.18 199.17 173.65 198.74 173.54 198.13C173.42 197.45 173.88 196.8 174.57 196.68C178.64 195.98 179.45 194.47 179.45 194.45C179.67 193.79 180.38 193.43 181.04 193.65C181.7 193.87 182.06 194.58 181.84 195.24C181.68 195.73 180.59 198.2 174.99 199.16C174.92 199.17 174.85 199.17 174.78 199.17Z" fill="#5E9DFB"/>
<path d="M179.62 197.66L178.66 187.42C178.66 187.42 183.15 187.75 183.14 192.45C183.14 194.03 182.69 195.78 179.62 197.66Z" fill="#5E9DFB"/>
<path d="M151.35 164.31C152.48 168.6 149.93 172.99 145.64 174.12C141.35 175.25 136.96 172.7 135.82 168.41L134.39 163.02C133.26 158.73 135.81 154.34 140.1 153.21C144.39 152.08 148.78 154.63 149.92 158.92L151.35 164.31Z" fill="#5E9DFB"/>
<path d="M150.6 161.46C149.99 163.16 149.13 164.84 147.8 165.99C144.57 168.78 139.61 169.53 135.68 167.86L135.83 168.42C136.96 172.71 141.36 175.26 145.65 174.13C149.94 173 152.49 168.6 151.36 164.32L150.6 161.46Z" fill="#1A3B69"/>
<path d="M135.8 168.12C132.78 166.18 129.53 158.83 134.29 157.21C137.24 156.21 136.05 165.3 136.05 167.86L135.8 168.12Z" fill="#1A3B69"/>
<path d="M133.38 157.82C129.74 155.18 134.25 147.71 143.26 147.71C148.83 147.71 148.79 151.97 144.94 154.28C141.75 156.19 136.79 155.07 134.39 158.33L133.38 157.82Z" fill="#1A3B69"/>
<path d="M150.59 163.11C149.31 161.18 146.8 157.25 145.82 155.05C145.2 153.65 144.35 151.26 147.16 152.96C149.51 154.38 150.79 159.39 150.57 161.93L150.59 163.11Z" fill="#1A3B69"/>
<path d="M86.96 180.97C85.57 182.25 84.05 183.45 82.8 184.88L64.67 222.76L78.17 205.34L92.5 175.7C90.67 177.47 88.83 179.24 86.96 180.97Z" fill="#0445A7"/>
<path d="M76.21 174.75C77.53 172.95 78.79 170.84 80.29 168.98L48.55 153.48L18.44 156.49L71.2 180.82C72.93 178.86 74.66 176.86 76.21 174.75Z" fill="#0445A7"/>
<path d="M80.73 169.2C79.04 171.31 77.67 173.79 76.05 175.77C74.6 177.54 73.14 179.31 71.64 181.05L95.63 192.11L104.34 180.74L80.73 169.2Z" fill="#579AFF"/>
<path d="M44.62 213.16L53.92 193.73L5.17999 170.39L13.01 154.04L93.27 106.77L115.17 117.25L82.98 184.49L96.24 190.84L87.23 209.65L73.97 203.3L64.67 222.73L44.62 213.16ZM80.72 137.74L79.49 137.15L36.56 162.28L62.93 174.91L80.72 137.74Z" fill="#1857B7"/>
<path d="M96.24 190.86L104.35 180.73L97.99 194.84L86.93 210.28L96.24 190.86Z" fill="#0445A7"/>
<path d="M93.13 175.13L124.78 105.75L115.16 117.26L82.97 184.5C83.87 183.64 92.62 175.64 93.13 175.13Z" fill="#0445A7"/>
<path d="M13.01 154.04L27.31 141.59L105.73 96.58L93.27 106.78L13.01 154.04Z" fill="#2172EB"/>
<path d="M93.27 106.78L115.17 117.26L124.78 105.75L105.73 96.58L93.27 106.78Z" fill="#579AFF"/>
<path d="M66.39 157.45C63.7 155.54 61.84 156.37 60.55 156.57C59.13 156.79 58.08 156.02 58.08 156.01C57.5 155.63 56.72 155.8 56.34 156.38C55.96 156.96 56.13 157.74 56.71 158.12C56.77 158.16 57.87 158.86 59.78 159.36C57.69 161.26 55.56 163.56 55.44 163.69C54.97 164.2 55 164.99 55.51 165.46C55.75 165.68 56.06 165.79 56.36 165.79C56.7 165.79 57.04 165.65 57.28 165.39C57.3 165.36 58.79 163.76 60.45 162.17C58.91 164.1 57.47 166.1 57.2 166.47C56.8 167.03 56.93 167.82 57.49 168.22C57.71 168.38 57.97 168.45 58.22 168.45C58.61 168.45 59 168.27 59.24 167.93C60.06 166.78 61.22 165.23 62.33 163.84C61.92 164.65 61.39 165.58 60.35 167.26C59.98 167.85 60.16 168.62 60.75 168.99C60.96 169.12 61.19 169.18 61.41 169.18C61.83 169.18 62.24 168.97 62.48 168.59C62.91 167.9 63.26 167.32 63.55 166.83C63.33 167.38 63.52 168.02 64.03 168.35C64.24 168.49 64.48 168.55 64.71 168.55C65.12 168.55 65.52 168.35 65.76 167.98C66.94 166.17 67.51 164.69 67.75 163.53L67.8 163.57C68.52 160.04 67.67 158.36 66.39 157.45ZM63.87 166.29C64.29 165.56 64.57 165.01 64.84 164.46C64.61 164.99 64.3 165.6 63.87 166.29Z" fill="#5E9DFB"/>
<path d="M27.92 171.7C23.94 171.48 18.17 179.26 24.08 181.38C18.74 181.25 17.43 188.81 22.33 190.89C13.75 189.22 14.75 200.34 18.81 204.36C16.06 203.92 13.28 206.55 13.7 209.41C14.12 212.29 15.26 216.29 22.39 218.43C29.52 220.57 33.88 216.56 37.43 212.78C39.7 217.42 50.93 211.15 49.68 205.6C53.92 207.1 57.71 202.29 57.8 198.45C57.88 194.7 55.26 191.84 52.76 189.4C54.52 187.79 54.85 184.8 54.39 182.52C53.62 178.73 48.87 178.35 48.87 175.33C48.87 174.27 49.07 170.99 48.17 169.55C46.74 167.26 44.24 164.99 41.11 166.11C27.92 159.87 27.92 171.7 27.92 171.7Z" fill="#1A3B69"/>
<path d="M35.6 293.65C31.98 293.02 31.39 293.2 27.81 292.32L19.52 302.45H51.68L33 297.43L35.6 293.65Z" fill="#0C2F4F"/>
<path d="M95.47 296.55L93.57 294.05C91.85 295.16 90.07 296.11 88.13 296.78L93.21 302.45H112.05L95.47 296.55Z" fill="#0C2F4F"/>
<path d="M24.41 293.68C28.01 294.56 31.61 295.48 35.26 296.1L61.81 263.43L57.29 250.45L38.7 229.02L44.06 259.4L24.41 293.68Z" fill="#0C2F4F"/>
<path d="M60.52 220.02C53.23 218.09 43.36 220.53 36.27 223.21C36.27 223.21 40.62 240.52 43.47 245.68C51.78 260.71 87.73 298.23 87.73 298.23C89.7 297.56 93.51 294.77 95.25 293.65L60.52 220.02Z" fill="#1A3B69"/>
<path d="M35.31 229.98C42.34 227.34 56.46 222.88 63.7 224.69C63.7 224.69 54.11 202.16 49.76 197.19C46.82 193.84 30.78 184.4 30.78 196.74C30.77 213.65 35.31 229.98 35.31 229.98Z" fill="#CDE5E8"/>
<path d="M41.56 195.69C41.47 195.72 41.37 195.75 41.27 195.78C39.13 196.36 36.92 195.09 36.34 192.95C35.74 190.71 35.71 187.91 35.7 187.6C35.69 185.38 37.48 183.57 39.7 183.56C41.92 183.55 43.72 185.34 43.74 187.56C43.75 188.34 43.85 189.93 44.1 190.85C44.66 192.9 43.53 195 41.56 195.69Z" fill="#5E9DFB"/>
<path d="M44.24 191.72C44.23 191.43 44.19 191.14 44.11 190.85C43.86 189.92 43.76 188.34 43.75 187.56C43.74 185.34 41.93 183.55 39.71 183.56C37.49 183.57 35.7 185.38 35.71 187.6C35.71 187.65 35.71 187.77 35.72 187.94C37.7 190.17 40.96 191.23 44.24 191.72Z" fill="#4E89E2"/>
<path d="M48.17 179.67C49.47 183.66 47.28 187.95 43.29 189.25C39.3 190.54 35.01 188.36 33.71 184.37L32.08 179.35C30.78 175.36 32.97 171.07 36.96 169.77C40.95 168.47 45.24 170.66 46.54 174.65L48.17 179.67Z" fill="#5E9DFB"/>
<path d="M92.93 175.64C92.77 175.51 92.59 175.42 92.4 175.38C92.58 175.18 92.78 174.96 93.01 174.72C93.48 174.21 93.45 173.41 92.94 172.94C92.88 172.88 92.81 172.83 92.74 172.79C93.09 172.29 93.03 171.59 92.57 171.16C92.21 170.83 91.72 170.75 91.29 170.9C91.86 170.32 92.22 169.92 92.26 169.87C92.72 169.35 92.67 168.56 92.15 168.1C91.63 167.64 90.84 167.69 90.38 168.21C90.35 168.24 87.62 171.32 84.81 172.92C83.59 171.08 81.96 170.43 81.86 170.4C81.22 170.16 80.5 170.48 80.25 171.12C80 171.76 80.32 172.49 80.96 172.74C81.02 172.76 81.98 173.17 82.72 174.32C82.62 174.6 82.5 175.01 82.43 175.48C63.94 200.5 39.43 191.62 38.32 191.2C36.12 190.36 33.66 191.45 32.81 193.64C31.96 195.84 33.05 198.31 35.25 199.17C35.55 199.29 41.55 201.57 50.11 201.57C51.83 201.57 53.66 201.48 55.56 201.26C64.79 200.19 78.44 194.87 89.34 180.82C89.52 180.72 89.77 180.56 90.1 180.32C90.32 180.18 90.55 180.02 90.78 179.82L90.75 179.8C91.4 179.26 92.19 178.49 93.09 177.41C93.53 176.87 93.46 176.08 92.93 175.64Z" fill="#5E9DFB"/>
<path d="M58.9 191.27L57.86 191.49C55.32 192.04 52.69 192.32 50.05 192.32C43.57 192.32 39.07 190.69 38.58 190.5C38 190.28 37.4 190.17 36.78 190.17C34.69 190.17 32.85 191.43 32.09 193.38C31.61 194.63 31.52 196.05 32.18 197.22C34.63 201.57 41.37 203.33 50.09 203.33C51.94 203.33 53.81 203.22 55.62 203.01C56.73 202.88 57.9 202.69 59.09 202.44L59.82 202.25C59.82 202.25 58.77 199.08 58.55 195.86C58.47 194.63 58.9 191.27 58.9 191.27Z" fill="#E2F3F6"/>
<path d="M31.92 183.38C34.56 181.7 35.47 178.56 35.18 175.42C37.49 176.98 39.32 176.03 40.77 173.35C45.15 179.49 51.83 170.35 42.72 167.04C35.43 164.39 28.29 171.6 30.16 178.85L31.92 183.38Z" fill="#1A3B69"/>
</g>
<defs>
<clipPath id="clip0_1_2">
<rect width="400" height="400" fill="white"/>
</clipPath>
</defs>
</svg>
