<svg width="765" height="216" viewBox="0 0 765 216" fill="none" xmlns="http://www.w3.org/2000/svg">
<rect x="59" y="51" width="196" height="21" fill="#1465DF"/>
<rect x="119" y="144" width="136" height="21" fill="#1465DF"/>
<rect x="255" y="59" width="104" height="21" transform="rotate(90 255 59)" fill="#1465DF"/>
<path d="M99.5 67.5L177.5 120.5L234 81L239.5 78L250 68.5L215 70L176.5 94.5L144 72L134 61.5L99.5 67.5Z" fill="#1465DF"/>
<rect x="77" y="86" width="39" height="15" fill="#1465DF"/>
<rect x="100" y="115" width="39" height="15" fill="#1465DF"/>
<path d="M302.54 163V49.81H364.25C370.3 49.81 375.69 50.965 380.42 53.275C385.26 55.585 389.055 58.83 391.805 63.01C394.555 67.19 395.93 72.085 395.93 77.695C395.93 81.985 395.105 85.89 393.455 89.41C391.805 92.93 389.55 95.9 386.69 98.32C383.94 100.63 380.805 102.39 377.285 103.6V104.26C381.465 105.14 385.205 106.845 388.505 109.375C391.805 111.795 394.39 114.93 396.26 118.78C398.13 122.52 399.065 126.865 399.065 131.815C399.065 138.855 397.47 144.685 394.28 149.305C391.2 153.925 387.02 157.39 381.74 159.7C376.57 161.9 370.74 163 364.25 163H302.54ZM323.99 144.685H361.445C365.955 144.685 369.64 143.475 372.5 141.055C375.47 138.525 376.955 134.62 376.955 129.34C376.955 126.26 376.35 123.565 375.14 121.255C373.93 118.945 372.06 117.185 369.53 115.975C367.11 114.655 363.975 113.995 360.125 113.995H323.99V144.685ZM323.99 96.01H358.64C361.94 96.01 364.69 95.405 366.89 94.195C369.2 92.985 370.905 91.335 372.005 89.245C373.215 87.155 373.82 84.845 373.82 82.315C373.82 77.475 372.5 73.9 369.86 71.59C367.33 69.28 363.975 68.125 359.795 68.125H323.99V96.01ZM471.014 164.98C459.244 164.98 449.069 162.89 440.489 158.71C431.909 154.42 425.309 147.93 420.689 139.24C416.179 130.55 413.924 119.605 413.924 106.405C413.924 93.095 416.179 82.15 420.689 73.57C425.309 64.88 431.909 58.445 440.489 54.265C449.069 49.975 459.244 47.83 471.014 47.83C482.894 47.83 493.069 49.975 501.539 54.265C510.119 58.445 516.664 64.88 521.174 73.57C525.794 82.15 528.104 93.095 528.104 106.405C528.104 119.605 525.794 130.55 521.174 139.24C516.664 147.93 510.119 154.42 501.539 158.71C493.069 162.89 482.894 164.98 471.014 164.98ZM471.014 146.83C476.734 146.83 481.739 146.005 486.029 144.355C490.429 142.705 494.114 140.285 497.084 137.095C500.054 133.795 502.309 129.78 503.849 125.05C505.389 120.21 506.159 114.655 506.159 108.385V104.755C506.159 98.375 505.389 92.765 503.849 87.925C502.309 83.085 500.054 79.07 497.084 75.88C494.114 72.58 490.429 70.105 486.029 68.455C481.739 66.805 476.734 65.98 471.014 65.98C465.294 65.98 460.234 66.805 455.834 68.455C451.544 70.105 447.914 72.58 444.944 75.88C441.974 79.07 439.719 83.085 438.179 87.925C436.749 92.765 436.034 98.375 436.034 104.755V108.385C436.034 114.655 436.749 120.21 438.179 125.05C439.719 129.78 441.974 133.795 444.944 137.095C447.914 140.285 451.544 142.705 455.834 144.355C460.234 146.005 465.294 146.83 471.014 146.83ZM597.936 164.98C586.386 164.98 576.486 162.945 568.236 158.875C560.096 154.805 553.826 148.48 549.426 139.9C545.136 131.21 542.991 120.045 542.991 106.405C542.991 86.495 547.831 71.755 557.511 62.185C567.191 52.615 580.666 47.83 597.936 47.83C607.286 47.83 615.701 49.425 623.181 52.615C630.771 55.805 636.766 60.645 641.166 67.135C645.676 73.515 647.931 81.655 647.931 91.555H625.986C625.986 86.055 624.776 81.435 622.356 77.695C620.046 73.845 616.801 70.93 612.621 68.95C608.441 66.97 603.656 65.98 598.266 65.98C590.786 65.98 584.571 67.465 579.621 70.435C574.671 73.295 570.986 77.585 568.566 83.305C566.256 89.025 565.101 96.12 565.101 104.59V108.22C565.101 116.8 566.256 123.95 568.566 129.67C570.986 135.39 574.616 139.68 579.456 142.54C584.406 145.4 590.676 146.83 598.266 146.83C603.986 146.83 608.991 145.895 613.281 144.025C617.571 142.045 620.871 139.185 623.181 135.445C625.601 131.595 626.811 126.92 626.811 121.42H647.931C647.931 131.32 645.731 139.515 641.331 146.005C636.931 152.385 630.936 157.17 623.346 160.36C615.866 163.44 607.396 164.98 597.936 164.98ZM691.52 163V68.29H655.385V49.81H749.27V68.29H712.97V163H691.52Z" fill="#1465DF"/>
</svg>
